<svg xmlns="http://www.w3.org/2000/svg" viewBox="0 0 640 420" role="img" aria-label="Students learning together in a bright classroom">
  <defs>
    <linearGradient id="bg" x1="0%" y1="0%" x2="100%" y2="100%">
      <stop offset="0%" stop-color="#e8f7f5"/>
      <stop offset="55%" stop-color="#f3ecff"/>
      <stop offset="100%" stop-color="#fff4e8"/>
    </linearGradient>
    <linearGradient id="desk" x1="0%" y1="0%" x2="0%" y2="100%">
      <stop offset="0%" stop-color="#11615c"/>
      <stop offset="100%" stop-color="#0b4844"/>
    </linearGradient>
    <linearGradient id="screen" x1="0%" y1="0%" x2="100%" y2="100%">
      <stop offset="0%" stop-color="#6d28d9"/>
      <stop offset="100%" stop-color="#11615c"/>
    </linearGradient>
  </defs>
  <rect width="640" height="420" rx="28" fill="url(#bg)"/>
  <ellipse cx="320" cy="390" rx="250" ry="18" fill="#11615c" opacity="0.08"/>
  <rect x="70" y="250" width="500" height="18" rx="9" fill="url(#desk)"/>
  <rect x="120" y="170" width="180" height="110" rx="14" fill="#fff" stroke="#d9cdb9"/>
  <rect x="135" y="185" width="150" height="80" rx="8" fill="url(#screen)" opacity="0.92"/>
  <rect x="340" y="170" width="180" height="110" rx="14" fill="#fff" stroke="#d9cdb9"/>
  <rect x="355" y="185" width="150" height="80" rx="8" fill="#fff7ef" stroke="#c96f2a" stroke-width="2"/>
  <path d="M365 220h130M365 235h90M365 250h110" stroke="#6d28d9" stroke-width="4" stroke-linecap="round" opacity="0.5"/>
  <circle cx="205" cy="130" r="34" fill="#f4c9a8"/>
  <circle cx="430" cy="125" r="32" fill="#d9a574"/>
  <circle cx="500" cy="140" r="30" fill="#f0b990"/>
  <path d="M170 165c8-28 46-42 70-30 18 10 24 34 12 52-14 22-52 28-74 10-10-8-16-20-8-32z" fill="#2d3436"/>
  <path d="M395 158c10-24 44-34 64-20 16 12 20 36 8 52-14 20-48 24-66 8-8-7-12-18-6-28z" fill="#4a3728"/>
  <path d="M468 172c8-22 36-30 52-18 12 10 16 30 6 44-12 18-40 20-54 6-6-6-10-16-4-24z" fill="#5c3d2e"/>
  <rect x="188" y="164" width="34" height="10" rx="5" fill="#2d3436"/>
  <rect x="412" y="158" width="36" height="10" rx="5" fill="#4a3728"/>
  <rect x="482" y="172" width="32" height="9" rx="4" fill="#5c3d2e"/>
  <circle cx="198" cy="210" r="8" fill="#f4c9a8"/>
  <circle cx="422" cy="205" r="8" fill="#d9a574"/>
  <circle cx="492" cy="218" r="7" fill="#f0b990"/>
  <path d="M188 218h34l-8 42h-18z" fill="#6d28d9"/>
  <path d="M408 212h38l-8 48h-22z" fill="#11615c"/>
  <path d="M478 224h34l-8 36h-18z" fill="#c96f2a"/>
  <circle cx="560" cy="88" r="26" fill="#ffe08a" opacity="0.85"/>
  <path d="M90 95c18-24 48-18 58 4 8 18-4 38-26 40-20 2-40-14-32-34 4-8 12-14 0-10z" fill="#9be7de" opacity="0.55"/>
</svg>
